# Blender v2.81 (sub 16) OBJ File: 'basketballHoop.blend'
# www.blender.org
mtllib basketballHoop.mtl
o Circle
v 1.167138 1.380228 0.000000
v 1.001903 1.547615 0.000000
v 0.816094 1.678669 0.000000
v 0.599697 1.793929 0.000000
v 0.398363 1.868133 0.000000
v 0.198253 1.905694 0.000000
v -0.011011 1.916944 -0.000000
v -0.215933 1.903628 -0.000000
v -0.413357 1.860486 -0.000000
v -0.623604 1.785773 -0.000000
v -0.818398 1.685005 -0.000000
v -1.019446 1.527570 -0.000000
v -1.204272 1.340919 -0.000000
v -1.357525 1.119899 -0.000000
v -1.469156 0.893348 -0.000000
v -1.470119 0.246414 -0.000000
v -0.498941 0.007609 -0.000000
v 0.487675 0.009304 0.000000
v 1.461504 0.232946 0.000000
v 1.463577 0.892217 0.000000
v 1.353873 1.125866 0.000000
v 0.198253 1.905694 0.076215
v 0.487675 0.009304 0.076215
v 1.001903 1.547615 0.076215
v 1.167138 1.380228 0.076215
v 0.816094 1.678669 0.076215
v 0.599697 1.793929 0.076215
v 0.398363 1.868133 0.076215
v -0.011011 1.916944 0.076215
v -0.215933 1.903628 0.076215
v -0.413357 1.860486 0.076215
v -0.623604 1.785773 0.076215
v -0.818398 1.685005 0.076215
v -1.019446 1.527570 0.076215
v -1.204272 1.340919 0.076215
v -1.357525 1.119899 0.076215
v -1.469156 0.893348 0.076215
v -1.470119 0.246414 0.076215
v -0.498941 0.007609 0.076215
v 1.461504 0.232946 0.076215
v 1.463577 0.892217 0.076215
v 1.353873 1.125866 0.076215
vt 0.969985 0.069605
vt 0.969546 0.143250
vt 0.878795 0.043510
vt 0.849807 0.255010
vt 0.868626 0.251043
vt 0.941253 0.197422
vt 0.959024 0.169223
vt 0.925582 0.215931
vt 0.908016 0.230357
vt 0.887594 0.242985
vt 0.830155 0.256027
vt 0.786181 0.043510
vt 0.810933 0.254306
vt 0.792445 0.249261
vt 0.772782 0.240675
vt 0.694276 0.140022
vt 0.694807 0.067757
vt 0.754596 0.229196
vt 0.735877 0.211380
vt 0.718708 0.190320
vt 0.704536 0.165456
vt 0.024786 0.372058
vt 0.338848 0.282610
vt 0.026298 0.593651
vt 0.438684 0.963957
vt 0.378596 0.950295
vt 0.123741 0.780225
vt 0.062534 0.683105
vt 0.177709 0.841924
vt 0.241957 0.893655
vt 0.312292 0.929645
vt 0.657817 0.282610
vt 0.506368 0.966602
vt 0.574142 0.962390
vt 0.636245 0.948451
vt 0.703962 0.920598
vt 0.975489 0.368281
vt 0.974343 0.582534
vt 0.766598 0.884500
vt 0.831068 0.828296
vt 0.890197 0.755761
vt 0.939007 0.670130
vt 0.128856 0.216845
vt 0.109590 0.207826
vt 0.112380 0.201011
vt 0.130656 0.209628
vt 0.064007 0.065754
vt 0.122713 0.044732
vt 0.123554 0.051177
vt 0.069039 0.069970
vt 0.248008 0.164930
vt 0.237104 0.182465
vt 0.233047 0.178073
vt 0.243480 0.161566
vt 0.146463 0.221332
vt 0.147216 0.213990
vt 0.054137 0.128445
vt 0.060548 0.127545
vt 0.256400 0.145564
vt 0.251603 0.143292
vt 0.163262 0.222076
vt 0.163008 0.214791
vt 0.061673 0.153935
vt 0.067415 0.150305
vt 0.261426 0.124754
vt 0.256381 0.123697
vt 0.180186 0.219696
vt 0.179027 0.212618
vt 0.262646 0.104826
vt 0.257814 0.105763
vt 0.196094 0.214570
vt 0.194083 0.207928
vt 0.248742 0.067400
vt 0.245868 0.071694
vt 0.210558 0.206768
vt 0.207764 0.200684
vt 0.077759 0.180001
vt 0.082519 0.174756
vt 0.092928 0.196038
vt 0.096691 0.189862
vt 0.189998 0.044732
vt 0.189307 0.050651
vt 0.224944 0.195645
vt 0.221459 0.190269
vn -0.0000 0.0000 1.0000
vn 0.0000 -0.0000 -1.0000
vn -0.4701 -0.8826 0.0000
vn -0.2238 0.9746 0.0000
vn 0.6165 -0.7873 0.0000
vn -0.3458 -0.9383 0.0000
vn -1.0000 0.0031 0.0000
vn 0.7106 -0.7036 0.0000
vn -0.1845 -0.9828 0.0000
vn -0.9052 -0.4250 0.0000
vn 0.8218 -0.5698 0.0000
vn -0.0537 -0.9986 0.0000
vn 0.8970 -0.4420 0.0000
vn 0.0648 -0.9979 -0.0000
vn 1.0000 -0.0015 0.0000
vn 0.2135 -0.9769 0.0000
vn -0.8061 -0.5918 0.0000
vn -0.7117 -0.7025 0.0000
vn 0.2388 0.9711 0.0000
vn 0.3348 -0.9423 0.0000
vn -0.5764 -0.8172 0.0000
vn -0.0017 1.0000 0.0000
vn 0.4595 -0.8882 0.0000
usemtl Material.002
s off
f 19/1/1 20/2/1 18/3/1
f 6/4/1 18/3/1 5/5/1
f 1/6/1 18/3/1 21/7/1
f 2/8/1 18/3/1 1/6/1
f 3/9/1 18/3/1 2/8/1
f 4/10/1 18/3/1 3/9/1
f 5/5/1 18/3/1 4/10/1
f 18/3/1 7/11/1 17/12/1
f 6/4/1 7/11/1 18/3/1
f 8/13/1 17/12/1 7/11/1
f 9/14/1 17/12/1 8/13/1
f 10/15/1 17/12/1 9/14/1
f 17/12/1 15/16/1 16/17/1
f 18/3/1 20/2/1 21/7/1
f 11/18/1 12/19/1 17/12/1
f 12/19/1 13/20/1 17/12/1
f 13/20/1 14/21/1 17/12/1
f 14/21/1 15/16/1 17/12/1
f 11/18/1 17/12/1 10/15/1
f 40/22/2 23/23/2 41/24/2
f 22/25/2 28/26/2 23/23/2
f 25/27/2 42/28/2 23/23/2
f 24/29/2 25/27/2 23/23/2
f 26/30/2 24/29/2 23/23/2
f 27/31/2 26/30/2 23/23/2
f 28/26/2 27/31/2 23/23/2
f 23/23/2 39/32/2 29/33/2
f 22/25/2 23/23/2 29/33/2
f 30/34/2 29/33/2 39/32/2
f 31/35/2 30/34/2 39/32/2
f 32/36/2 31/35/2 39/32/2
f 39/32/2 38/37/2 37/38/2
f 23/23/2 42/28/2 41/24/2
f 33/39/2 39/32/2 34/40/2
f 34/40/2 39/32/2 35/41/2
f 35/41/2 39/32/2 36/42/2
f 36/42/2 39/32/2 37/38/2
f 33/39/2 32/36/2 39/32/2
f 4/43/3 3/44/3 26/45/3 27/46/3
f 19/47/4 18/48/4 23/49/4 40/50/4
f 12/51/5 11/52/5 33/53/5 34/54/5
f 5/55/6 4/43/6 27/46/6 28/56/6
f 20/57/7 19/47/7 40/50/7 41/58/7
f 13/59/8 12/51/8 34/54/8 35/60/8
f 6/61/9 5/55/9 28/56/9 22/62/9
f 21/63/10 20/57/10 41/58/10 42/64/10
f 14/65/11 13/59/11 35/60/11 36/66/11
f 7/67/12 6/61/12 22/62/12 29/68/12
f 15/69/13 14/65/13 36/66/13 37/70/13
f 8/71/14 7/67/14 29/68/14 30/72/14
f 16/73/15 15/69/15 37/70/15 38/74/15
f 9/75/16 8/71/16 30/72/16 31/76/16
f 1/77/17 21/63/17 42/64/17 25/78/17
f 2/79/18 1/77/18 25/78/18 24/80/18
f 17/81/19 16/73/19 38/74/19 39/82/19
f 10/83/20 9/75/20 31/76/20 32/84/20
f 3/44/21 2/79/21 24/80/21 26/45/21
f 18/48/22 17/81/22 39/82/22 23/49/22
f 11/52/23 10/83/23 32/84/23 33/53/23
o Circle.001
v -0.007079 0.414586 0.282760
v -0.084586 0.414586 0.290394
v -0.159114 0.414586 0.313002
v -0.227800 0.414586 0.349715
v -0.288004 0.414586 0.399123
v -0.337411 0.414586 0.459327
v -0.374125 0.414586 0.528013
v -0.396733 0.414586 0.602541
v -0.404366 0.414586 0.680048
v -0.396733 0.414586 0.757555
v -0.374125 0.414586 0.832083
v -0.337411 0.414586 0.900769
v -0.288004 0.414586 0.960973
v -0.227800 0.414586 1.010381
v -0.159114 0.414586 1.047094
v -0.084586 0.414586 1.069702
v -0.007079 0.414586 1.077336
v 0.070429 0.414586 1.069702
v 0.144957 0.414586 1.047094
v 0.213643 0.414586 1.010381
v 0.273846 0.414586 0.960973
v 0.323254 0.414586 0.900769
v 0.359967 0.414586 0.832083
v 0.382575 0.414586 0.757555
v 0.390209 0.414586 0.680048
v 0.382575 0.414586 0.602540
v 0.359967 0.414586 0.528012
v 0.323254 0.414586 0.459326
v 0.273846 0.414586 0.399123
v 0.213642 0.414586 0.349715
v 0.144956 0.414586 0.313002
v 0.070428 0.414586 0.290394
v -0.076075 0.414586 0.333182
v -0.007079 0.414586 0.326386
v -0.142419 0.414586 0.353307
v -0.203563 0.414586 0.385989
v -0.257155 0.414586 0.429971
v -0.301138 0.414586 0.483564
v -0.333820 0.414586 0.544707
v -0.353945 0.414586 0.611052
v -0.360740 0.414586 0.680048
v -0.353945 0.414586 0.749044
v -0.333820 0.414586 0.815388
v -0.301138 0.414586 0.876532
v -0.257155 0.414586 0.930125
v -0.203563 0.414586 0.974107
v -0.142419 0.414586 1.006789
v -0.076075 0.414586 1.026914
v -0.007079 0.414586 1.033710
v 0.061917 0.414586 1.026914
v 0.128262 0.414586 1.006789
v 0.189406 0.414586 0.974107
v 0.242998 0.414586 0.930124
v 0.286981 0.414586 0.876532
v 0.319662 0.414586 0.815388
v 0.339788 0.414586 0.749044
v 0.346583 0.414586 0.680048
v 0.339788 0.414586 0.611052
v 0.319662 0.414586 0.544707
v 0.286980 0.414586 0.483564
v 0.242998 0.414586 0.429971
v 0.189405 0.414586 0.385989
v 0.128261 0.414586 0.353307
v 0.061917 0.414586 0.333182
v -0.076075 0.463596 0.333182
v -0.007079 0.463596 0.326386
v -0.142419 0.463596 0.353307
v -0.203563 0.463596 0.385989
v -0.257155 0.463596 0.429971
v -0.301138 0.463596 0.483564
v -0.333820 0.463596 0.544707
v -0.353945 0.463596 0.611052
v -0.360740 0.463596 0.680048
v -0.353945 0.463596 0.749044
v -0.333820 0.463596 0.815388
v -0.301138 0.463596 0.876532
v -0.257155 0.463596 0.930125
v -0.203563 0.463596 0.974107
v -0.142419 0.463596 1.006789
v -0.076075 0.463596 1.026914
v -0.007079 0.463596 1.033710
v 0.061917 0.463596 1.026914
v 0.128262 0.463596 1.006789
v 0.189406 0.463596 0.974107
v 0.242998 0.463596 0.930124
v 0.286981 0.463596 0.876532
v 0.319662 0.463596 0.815388
v 0.339788 0.463596 0.749044
v 0.346583 0.463596 0.680048
v 0.339788 0.463596 0.611052
v 0.319662 0.463596 0.544707
v 0.286980 0.463596 0.483564
v 0.242998 0.463596 0.429971
v 0.189405 0.463596 0.385989
v 0.128261 0.463596 0.353307
v 0.061917 0.463596 0.333182
v -0.084586 0.463596 0.290394
v -0.007079 0.463596 0.282760
v -0.159114 0.463596 0.313002
v -0.227800 0.463596 0.349715
v -0.288004 0.463596 0.399123
v -0.337411 0.463596 0.459327
v -0.374125 0.463596 0.528013
v -0.396733 0.463596 0.602541
v -0.404366 0.463596 0.680048
v -0.396733 0.463596 0.757555
v -0.374125 0.463596 0.832083
v -0.337411 0.463596 0.900769
v -0.288004 0.463596 0.960973
v -0.227800 0.463596 1.010381
v -0.159114 0.463596 1.047094
v -0.084586 0.463596 1.069702
v -0.007079 0.463596 1.077336
v 0.070429 0.463596 1.069702
v 0.144957 0.463596 1.047094
v 0.213643 0.463596 1.010381
v 0.273846 0.463596 0.960973
v 0.323254 0.463596 0.900769
v 0.359967 0.463596 0.832083
v 0.382575 0.463596 0.757555
v 0.390209 0.463596 0.680048
v 0.382575 0.463596 0.602540
v 0.359967 0.463596 0.528012
v 0.323254 0.463596 0.459326
v 0.273846 0.463596 0.399123
v 0.213642 0.463596 0.349715
v 0.144956 0.463596 0.313002
v 0.070428 0.463596 0.290394
v 0.070428 0.414586 0.013147
v 0.144956 0.414586 0.035755
v 0.070428 0.463596 0.013147
v 0.144956 0.463596 0.035755
v -0.159114 0.414586 0.032216
v -0.084586 0.414586 0.009608
v -0.159114 0.463596 0.032216
v -0.084586 0.463596 0.009608
vt 0.929250 -0.036504
vt 0.929250 -0.036504
vt 0.929250 -0.036504
vt 0.929250 -0.036504
vt 0.929250 -0.036504
vt 0.929250 -0.036504
vt 0.929250 -0.036504
vt 0.929250 -0.036504
vt 0.929250 -0.036504
vt 0.929250 -0.036504
vt 0.929250 -0.036504
vt 0.929250 -0.036504
vt 0.929250 -0.036504
vt 0.929250 -0.036504
vt 0.929250 -0.036504
vt 0.929250 -0.036504
vt 0.929250 -0.036504
vt 0.929250 -0.036504
vt 0.929250 -0.036504
vt 0.929250 -0.036504
vt 0.929250 -0.036504
vt 0.929250 -0.036504
vt 0.929250 -0.036504
vt 0.929250 -0.036504
vt 0.929250 -0.036504
vt 0.929250 -0.036504
vt 0.929250 -0.036504
vt 0.929250 -0.036504
vt 0.929250 -0.036504
vt 0.929250 -0.036504
vt 0.929250 -0.036504
vt 0.929250 -0.036504
vt 0.929250 -0.036504
vt 0.929250 -0.036504
vt 0.929250 -0.036504
vt 0.929250 -0.036504
vt 0.929250 -0.036504
vt 0.929250 -0.036504
vt 0.929250 -0.036504
vt 0.929250 -0.036504
vt 0.929250 -0.036504
vt 0.929250 -0.036504
vt 0.929250 -0.036504
vt 0.929250 -0.036504
vt 0.929250 -0.036504
vt 0.929250 -0.036504
vt 0.929250 -0.036504
vt 0.929250 -0.036504
vt 0.929250 -0.036504
vt 0.929250 -0.036504
vt 0.929250 -0.036504
vt 0.929250 -0.036504
vt 0.929250 -0.036504
vt 0.929250 -0.036504
vt 0.929250 -0.036504
vt 0.929250 -0.036504
vt 0.929250 -0.036504
vt 0.929250 -0.036504
vt 0.929250 -0.036504
vt 0.929250 -0.036504
vt 0.929250 -0.036504
vt 0.929250 -0.036504
vt 0.929250 -0.036504
vt 0.929250 -0.036504
vt 0.929250 -0.036504
vt 0.929250 -0.036504
vt 0.929250 -0.036504
vt 0.929250 -0.036504
vt 0.929250 -0.036504
vt 0.929250 -0.036504
vt 0.929250 -0.036504
vt 0.929250 -0.036504
vt 0.929250 -0.036504
vt 0.929250 -0.036504
vt 0.929250 -0.036504
vt 0.929250 -0.036504
vt 0.929250 -0.036504
vt 0.929250 -0.036504
vt 0.929250 -0.036504
vt 0.929250 -0.036504
vt 0.929250 -0.036504
vt 0.929250 -0.036504
vt 0.929250 -0.036504
vt 0.929250 -0.036504
vt 0.929250 -0.036504
vt 0.929250 -0.036504
vt 0.929250 -0.036504
vt 0.929250 -0.036504
vt 0.929250 -0.036504
vt 0.929250 -0.036504
vt 0.929250 -0.036504
vt 0.929250 -0.036504
vt 0.929250 -0.036504
vt 0.929250 -0.036504
vt 0.929250 -0.036504
vt 0.929250 -0.036504
vt 0.929250 -0.036504
vt 0.929250 -0.036504
vt 0.929250 -0.036504
vt 0.929250 -0.036504
vt 0.929250 -0.036504
vt 0.929250 -0.036504
vt 0.929250 -0.036504
vt 0.929250 -0.036504
vt 0.929250 -0.036504
vt 0.929250 -0.036504
vt 0.929250 -0.036504
vt 0.929250 -0.036504
vt 0.929250 -0.036504
vt 0.929250 -0.036504
vt 0.929250 -0.036504
vt 0.929250 -0.036504
vt 0.929250 -0.036504
vt 0.929250 -0.036504
vt 0.929250 -0.036504
vt 0.929250 -0.036504
vt 0.929250 -0.036504
vt 0.929250 -0.036504
vt 0.929250 -0.036504
vt 0.929250 -0.036504
vt 0.929250 -0.036504
vt 0.929250 -0.036504
vt 0.929250 -0.036504
vt 0.929250 -0.036504
vt 0.929250 -0.036504
vt 0.929250 -0.036504
vt 0.929250 -0.036504
vt 0.929250 -0.036504
vt 0.929250 -0.036504
vt 0.929250 -0.036504
vt 0.929250 -0.036504
vt 0.929250 -0.036504
vt 0.929250 -0.036504
vt 0.929250 -0.036504
vt 0.929250 -0.036504
vt 0.929250 -0.036504
vn 0.0000 -1.0000 0.0000
vn 0.0000 1.0000 0.0000
vn -0.8819 0.0000 -0.4714
vn 0.7730 0.0000 -0.6344
vn -0.9569 0.0000 -0.2903
vn 0.6344 0.0000 -0.7730
vn -0.9952 0.0000 -0.0980
vn 0.4714 0.0000 -0.8819
vn -0.9952 0.0000 0.0980
vn 0.2903 0.0000 -0.9569
vn -0.9569 0.0000 0.2903
vn 0.0980 0.0000 -0.9952
vn -0.8819 0.0000 0.4714
vn -0.0980 0.0000 -0.9952
vn -0.7730 0.0000 0.6344
vn -0.2903 0.0000 -0.9569
vn -0.6344 0.0000 0.7730
vn -0.4714 0.0000 -0.8819
vn -0.4714 0.0000 0.8819
vn -0.6344 0.0000 -0.7730
vn -0.2903 0.0000 0.9569
vn -0.7730 0.0000 -0.6344
vn -0.0980 0.0000 0.9952
vn 0.0980 0.0000 0.9952
vn 0.2903 0.0000 0.9569
vn 0.4714 0.0000 0.8819
vn 0.6344 0.0000 0.7730
vn 0.7730 0.0000 0.6344
vn 0.8819 0.0000 0.4714
vn 0.9569 0.0000 0.2903
vn 0.9952 0.0000 0.0980
vn 0.9952 0.0000 -0.0980
vn 0.9569 0.0000 -0.2903
vn 0.8819 0.0000 -0.4714
vn -1.0000 0.0000 0.0000
vn 1.0000 0.0000 0.0000
usemtl Material.001
s off
f 75/85/24 44/86/24 43/87/24 76/88/24
f 77/89/24 45/90/24 44/86/24 75/85/24
f 78/91/24 46/92/24 45/90/24 77/89/24
f 79/93/24 47/94/24 46/92/24 78/91/24
f 80/95/24 48/96/24 47/94/24 79/93/24
f 81/97/24 49/98/24 48/96/24 80/95/24
f 82/99/24 50/100/24 49/98/24 81/97/24
f 83/101/24 51/102/24 50/100/24 82/99/24
f 84/103/24 52/104/24 51/102/24 83/101/24
f 85/105/24 53/106/24 52/104/24 84/103/24
f 86/107/24 54/108/24 53/106/24 85/105/24
f 87/109/24 55/110/24 54/108/24 86/107/24
f 88/111/24 56/112/24 55/110/24 87/109/24
f 89/113/24 57/114/24 56/112/24 88/111/24
f 90/115/24 58/116/24 57/114/24 89/113/24
f 91/117/24 59/118/24 58/116/24 90/115/24
f 92/119/24 60/120/24 59/118/24 91/117/24
f 93/121/24 61/122/24 60/120/24 92/119/24
f 94/123/24 62/124/24 61/122/24 93/121/24
f 95/125/24 63/126/24 62/124/24 94/123/24
f 96/127/24 64/128/24 63/126/24 95/125/24
f 97/129/24 65/130/24 64/128/24 96/127/24
f 98/131/24 66/132/24 65/130/24 97/129/24
f 99/133/24 67/134/24 66/132/24 98/131/24
f 100/135/24 68/136/24 67/134/24 99/133/24
f 101/137/24 69/138/24 68/136/24 100/135/24
f 102/139/24 70/140/24 69/138/24 101/137/24
f 103/141/24 71/142/24 70/140/24 102/139/24
f 104/143/24 72/144/24 71/142/24 103/141/24
f 105/145/24 73/146/24 72/144/24 104/143/24
f 106/147/24 74/148/24 73/146/24 105/145/24
f 76/88/24 43/87/24 74/148/24 106/147/24
f 107/149/25 108/150/25 140/151/25 139/152/25
f 109/153/25 107/149/25 139/152/25 141/154/25
f 110/155/25 109/153/25 141/154/25 142/156/25
f 111/157/25 110/155/25 142/156/25 143/158/25
f 112/159/25 111/157/25 143/158/25 144/160/25
f 113/161/25 112/159/25 144/160/25 145/162/25
f 114/163/25 113/161/25 145/162/25 146/164/25
f 115/165/25 114/163/25 146/164/25 147/166/25
f 116/167/25 115/165/25 147/166/25 148/168/25
f 117/169/25 116/167/25 148/168/25 149/170/25
f 118/171/25 117/169/25 149/170/25 150/172/25
f 119/173/25 118/171/25 150/172/25 151/174/25
f 120/175/25 119/173/25 151/174/25 152/176/25
f 121/177/25 120/175/25 152/176/25 153/178/25
f 122/179/25 121/177/25 153/178/25 154/180/25
f 123/181/25 122/179/25 154/180/25 155/182/25
f 124/183/25 123/181/25 155/182/25 156/184/25
f 125/185/25 124/183/25 156/184/25 157/186/25
f 126/187/25 125/185/25 157/186/25 158/188/25
f 127/189/25 126/187/25 158/188/25 159/190/25
f 128/191/25 127/189/25 159/190/25 160/192/25
f 129/193/25 128/191/25 160/192/25 161/194/25
f 130/195/25 129/193/25 161/194/25 162/196/25
f 131/197/25 130/195/25 162/196/25 163/198/25
f 132/199/25 131/197/25 163/198/25 164/200/25
f 133/201/25 132/199/25 164/200/25 165/202/25
f 134/203/25 133/201/25 165/202/25 166/204/25
f 135/205/25 134/203/25 166/204/25 167/206/25
f 136/207/25 135/205/25 167/206/25 168/208/25
f 137/209/25 136/207/25 168/208/25 169/210/25
f 138/211/25 137/209/25 169/210/25 170/212/25
f 108/150/25 138/211/25 170/212/25 140/151/25
f 48/96/26 49/98/26 145/162/26 144/160/26
f 87/109/27 86/107/27 118/171/27 119/173/27
f 49/98/28 50/100/28 146/164/28 145/162/28
f 88/111/29 87/109/29 119/173/29 120/175/29
f 50/100/30 51/102/30 147/166/30 146/164/30
f 89/113/31 88/111/31 120/175/31 121/177/31
f 51/102/32 52/104/32 148/168/32 147/166/32
f 90/115/33 89/113/33 121/177/33 122/179/33
f 52/104/34 53/106/34 149/170/34 148/168/34
f 91/117/35 90/115/35 122/179/35 123/181/35
f 53/106/36 54/108/36 150/172/36 149/170/36
f 92/119/37 91/117/37 123/181/37 124/183/37
f 54/108/38 55/110/38 151/174/38 150/172/38
f 93/121/39 92/119/39 124/183/39 125/185/39
f 55/110/40 56/112/40 152/176/40 151/174/40
f 94/123/41 93/121/41 125/185/41 126/187/41
f 56/112/42 57/114/42 153/178/42 152/176/42
f 95/125/43 94/123/43 126/187/43 127/189/43
f 57/114/44 58/116/44 154/180/44 153/178/44
f 96/127/45 95/125/45 127/189/45 128/191/45
f 58/116/46 59/118/46 155/182/46 154/180/46
f 97/129/26 96/127/26 128/191/26 129/193/26
f 59/118/47 60/120/47 156/184/47 155/182/47
f 98/131/28 97/129/28 129/193/28 130/195/28
f 60/120/48 61/122/48 157/186/48 156/184/48
f 99/133/30 98/131/30 130/195/30 131/197/30
f 61/122/49 62/124/49 158/188/49 157/186/49
f 100/135/32 99/133/32 131/197/32 132/199/32
f 62/124/50 63/126/50 159/190/50 158/188/50
f 101/137/34 100/135/34 132/199/34 133/201/34
f 63/126/51 64/128/51 160/192/51 159/190/51
f 102/139/36 101/137/36 133/201/36 134/203/36
f 75/85/47 76/88/47 108/150/47 107/149/47
f 64/128/52 65/130/52 161/194/52 160/192/52
f 103/141/38 102/139/38 134/203/38 135/205/38
f 77/89/48 75/85/48 107/149/48 109/153/48
f 65/130/53 66/132/53 162/196/53 161/194/53
f 104/143/40 103/141/40 135/205/40 136/207/40
f 78/91/49 77/89/49 109/153/49 110/155/49
f 66/132/54 67/134/54 163/198/54 162/196/54
f 105/145/42 104/143/42 136/207/42 137/209/42
f 79/93/50 78/91/50 110/155/50 111/157/50
f 67/134/55 68/136/55 164/200/55 163/198/55
f 106/147/44 105/145/44 137/209/44 138/211/44
f 80/95/51 79/93/51 111/157/51 112/159/51
f 68/136/56 69/138/56 165/202/56 164/200/56
f 76/88/46 106/147/46 138/211/46 108/150/46
f 81/97/52 80/95/52 112/159/52 113/161/52
f 69/138/57 70/140/57 166/204/57 165/202/57
f 43/87/37 44/86/37 139/152/37 140/151/37
f 82/99/53 81/97/53 113/161/53 114/163/53
f 70/140/27 71/142/27 167/206/27 166/204/27
f 44/86/24 45/90/24 175/213/24 176/214/24
f 83/101/54 82/99/54 114/163/54 115/165/54
f 71/142/29 72/144/29 168/208/29 167/206/29
f 45/90/41 46/92/41 142/156/41 141/154/41
f 84/103/55 83/101/55 115/165/55 116/167/55
f 72/144/31 73/146/31 169/210/31 168/208/31
f 46/92/43 47/94/43 143/158/43 142/156/43
f 85/105/56 84/103/56 116/167/56 117/169/56
f 74/148/58 170/212/58 173/215/58 171/216/58
f 47/94/45 48/96/45 144/160/45 143/158/45
f 86/107/57 85/105/57 117/169/57 118/171/57
f 74/148/35 43/87/35 140/151/35 170/212/35
f 172/217/33 171/216/33 173/215/33 174/218/33
f 73/146/24 74/148/24 171/216/24 172/217/24
f 169/210/59 73/146/59 172/217/59 174/218/59
f 170/212/25 169/210/25 174/218/25 173/215/25
f 176/214/39 175/213/39 177/219/39 178/220/39
f 45/90/58 141/154/58 177/219/58 175/213/58
f 139/152/59 44/86/59 176/214/59 178/220/59
f 141/154/25 139/152/25 178/220/25 177/219/25
